<svg width="27" height="33" viewBox="0 0 27 33" fill="none" xmlns="http://www.w3.org/2000/svg">
<path d="M0 28.5V4.5C0 3.30653 0.474445 2.16227 1.31836 1.31836C2.16227 0.474445 3.30653 0 4.5 0H18C18.3978 0 18.7792 0.158148 19.0605 0.439453L26.5605 7.93945C26.8419 8.22076 27 8.60218 27 9V28.5C27 29.6935 26.5256 30.8377 25.6816 31.6816C24.8377 32.5256 23.6935 33 22.5 33H4.5C3.30653 33 2.16227 32.5256 1.31836 31.6816C0.474446 30.8377 0 29.6935 0 28.5ZM10.5 22.5C11.3284 22.5 12 23.1716 12 24C12 24.8284 11.3284 25.5 10.5 25.5H7.5C6.67157 25.5 6 24.8284 6 24C6 23.1716 6.67157 22.5 7.5 22.5H10.5ZM19.5 22.5C20.3284 22.5 21 23.1716 21 24C21 24.8284 20.3284 25.5 19.5 25.5H16.5C15.6716 25.5 15 24.8284 15 24C15 23.1716 15.6716 22.5 16.5 22.5H19.5ZM10.5 16.5C11.3284 16.5 12 17.1716 12 18C12 18.8284 11.3284 19.5 10.5 19.5H7.5C6.67157 19.5 6 18.8284 6 18C6 17.1716 6.67157 16.5 7.5 16.5H10.5ZM19.5 16.5C20.3284 16.5 21 17.1716 21 18C21 18.8284 20.3284 19.5 19.5 19.5H16.5C15.6716 19.5 15 18.8284 15 18C15 17.1716 15.6716 16.5 16.5 16.5H19.5ZM18 7.5C18 7.89782 18.1581 8.27924 18.4395 8.56055C18.7208 8.84185 19.1022 9 19.5 9H23.3789L18 3.62109V7.5ZM3 28.5C3 28.8978 3.15815 29.2792 3.43945 29.5605C3.72076 29.8419 4.10218 30 4.5 30H22.5C22.8978 30 23.2792 29.8419 23.5605 29.5605C23.8419 29.2792 24 28.8978 24 28.5V12H19.5C18.3065 12 17.1623 11.5256 16.3184 10.6816C15.4744 9.83773 15 8.69347 15 7.5V3H4.5C4.10217 3 3.72076 3.15815 3.43945 3.43945C3.15815 3.72076 3 4.10217 3 4.5V28.5Z" fill="#36C3DC"/>
</svg>
