<svg width="36" height="36" viewBox="0 0 36 36" fill="none" xmlns="http://www.w3.org/2000/svg">
<path d="M19.5 10.5C19.5 9.70435 19.8163 8.94151 20.3789 8.37891C20.9415 7.8163 21.7043 7.5 22.5 7.5H25.5V4.5H22.5C20.9087 4.5 19.383 5.13259 18.2578 6.25781C17.1326 7.38303 16.5 8.9087 16.5 10.5V15C16.5 15.8284 15.8284 16.5 15 16.5H12V19.5H15C15.8284 19.5 16.5 20.1716 16.5 21V31.5H19.5V21C19.5 20.1716 20.1716 19.5 21 19.5H24.3296L25.0796 16.5H21C20.1716 16.5 19.5 15.8284 19.5 15V10.5ZM22.5 13.5H27C27.4619 13.5 27.8979 13.7131 28.1821 14.0771C28.4663 14.4411 28.5665 14.9153 28.4546 15.3633L26.9546 21.3633C26.7877 22.031 26.1883 22.5 25.5 22.5H22.5V33C22.5 33.8284 21.8284 34.5 21 34.5H15C14.1716 34.5 13.5 33.8284 13.5 33V22.5H10.5C9.67157 22.5 9 21.8284 9 21V15C9 14.1716 9.67157 13.5 10.5 13.5H13.5V10.5C13.5 8.11305 14.4489 5.82455 16.1367 4.13672C17.8245 2.44889 20.1131 1.5 22.5 1.5H27C27.8284 1.5 28.5 2.17157 28.5 3V9C28.5 9.82843 27.8284 10.5 27 10.5H22.5V13.5Z" fill="#36C3DC"/>
</svg>
