<svg width="33" height="33" viewBox="0 0 33 33" fill="none" xmlns="http://www.w3.org/2000/svg">
<path d="M16.6816 0.00732422C17.0465 0.0371221 17.3983 0.156317 17.707 0.353027L17.8579 0.457031L18 0.574219C18.318 0.85919 18.5492 1.22988 18.665 1.64355C18.6678 1.65333 18.6713 1.66302 18.6738 1.67285L21.0454 10.8765C21.1124 11.1358 21.2471 11.3726 21.4365 11.562C21.6259 11.7513 21.8628 11.8862 22.1221 11.9531L31.3242 14.3247L31.3491 14.332L31.5249 14.3877C31.8694 14.5139 32.1774 14.7229 32.4229 14.9956L32.5415 15.1377L32.647 15.2886C32.8774 15.6492 33.0014 16.0695 33.0015 16.5C33.0015 16.9924 32.8398 17.472 32.5415 17.8638C32.2431 18.2556 31.8239 18.5385 31.3491 18.6694L31.3242 18.6753L30.9507 17.2236L30.9478 17.2163L31.3242 18.6753L22.1221 21.0469C21.8626 21.1139 21.626 21.25 21.4365 21.4395C21.2474 21.6287 21.111 21.8645 21.0439 22.1235L18.6724 31.3271L18.6636 31.3564L17.2515 30.9609L17.2192 30.9521L18.6636 31.3564C18.5312 31.8293 18.2477 32.2462 17.8564 32.543C17.4653 32.8397 16.9881 33.0014 16.4971 33.0015C16.0061 33.0015 15.5289 32.8396 15.1377 32.543C14.7465 32.2462 14.4629 31.8293 14.3306 31.3564L15.7822 30.9492L15.75 30.958L14.3306 31.3564C14.3278 31.3467 14.3243 31.337 14.3218 31.3271L11.9502 22.125L14.8564 21.3765L16.4956 27.7441L18.1392 21.3765C18.3401 20.5981 18.747 19.8868 19.3154 19.3184C19.8841 18.7497 20.5949 18.343 21.3735 18.1421L27.7441 16.5L21.3735 14.8579C20.595 14.6571 19.884 14.2516 19.3154 13.6831C18.7468 13.1145 18.34 12.4037 18.1392 11.625L16.4971 5.25439L14.855 11.625C14.6537 12.403 14.2486 13.1151 13.6802 13.6831C13.1116 14.2513 12.4004 14.6558 11.6221 14.8564L5.25293 16.4985L11.6221 18.1421C12.4007 18.343 13.1116 18.7497 13.6802 19.3184C14.2485 19.8867 14.6541 20.5968 14.855 21.375L11.9502 22.125C11.8832 21.8656 11.7485 21.6289 11.5591 21.4395C11.3696 21.25 11.1329 21.1139 10.8735 21.0469L1.67139 18.6738L2.04492 17.2236L2.0376 17.2485L1.67139 18.6738L1.63623 18.665L1.46191 18.6079C1.06295 18.4587 0.713885 18.1983 0.455566 17.8564C0.160381 17.4658 0 16.9896 0 16.5C8.11703e-05 16.0105 0.160456 15.5341 0.455566 15.1436C0.750728 14.7532 1.16543 14.4701 1.63623 14.3364L1.66992 14.3262L2.03613 15.75L2.03906 15.7573L1.66992 14.3262L10.8735 11.9517C11.1328 11.8847 11.3696 11.7498 11.5591 11.5605C11.7482 11.3716 11.883 11.1352 11.9502 10.8765L14.3232 1.67285L15.7837 2.04932L15.7764 2.04785L14.3232 1.67285C14.3258 1.66303 14.3293 1.65332 14.332 1.64355C14.4644 1.17075 14.748 0.753765 15.1392 0.457031L15.2886 0.353027C15.6489 0.123181 16.0686 0 16.4985 0L16.6816 0.00732422ZM2.99854 27C2.17011 27 1.49707 26.3284 1.49707 25.5C1.49727 24.6717 2.17023 24 2.99854 24C2.99873 23.1717 3.67023 22.5 4.49854 22.5C5.27507 22.5004 5.91324 23.0912 5.98975 23.8477L5.99854 24L6.15088 24.0088C6.90725 24.0855 7.49835 24.7234 7.49854 25.5C7.49854 26.3282 6.82663 26.9996 5.99854 27C5.99854 27.8282 5.32663 28.4996 4.49854 28.5C3.67011 28.5 2.99854 27.8284 2.99854 27ZM26.9985 9V7.5H25.4985C24.6701 7.5 23.9985 6.82843 23.9985 6C23.9987 5.17174 24.6702 4.5 25.4985 4.5H26.9985V3C26.9987 2.17174 27.6702 1.5 28.4985 1.5C29.3265 1.5004 29.9983 2.17199 29.9985 3V4.5H31.4985C32.3265 4.5004 32.9983 5.17199 32.9985 6C32.9985 6.82818 32.3266 7.4996 31.4985 7.5H29.9985V9C29.9985 9.82818 29.3266 10.4996 28.4985 10.5C27.6701 10.5 26.9985 9.82843 26.9985 9Z" fill="#36C3DC"/>
</svg>
