<svg width="36" height="36" viewBox="0 0 36 36" fill="none" xmlns="http://www.w3.org/2000/svg">
<path d="M9 12C9.82843 12 10.5 12.6716 10.5 13.5V31.5C10.5 32.3284 9.82843 33 9 33H3C2.17157 33 1.5 32.3284 1.5 31.5V13.5C1.5 12.6716 2.17157 12 3 12H9ZM31.5 21C31.5 19.0109 30.7093 17.1038 29.3027 15.6973C27.8962 14.2907 25.9891 13.5 24 13.5C22.0109 13.5 20.1038 14.2907 18.6973 15.6973C17.2907 17.1038 16.5 19.0109 16.5 21V30H19.5V21C19.5 19.8065 19.9744 18.6623 20.8184 17.8184C21.6623 16.9744 22.8065 16.5 24 16.5C25.1935 16.5 26.3377 16.9744 27.1816 17.8184C28.0256 18.6623 28.5 19.8065 28.5 21V30H31.5V21ZM4.5 30H7.5V15H4.5V30ZM7.5 6C7.5 5.17157 6.82843 4.5 6 4.5C5.17157 4.5 4.5 5.17157 4.5 6C4.5 6.82843 5.17157 7.5 6 7.5C6.82843 7.5 7.5 6.82843 7.5 6ZM34.5 31.5C34.5 32.3284 33.8284 33 33 33H27C26.1716 33 25.5 32.3284 25.5 31.5V21C25.5 20.6022 25.3419 20.2208 25.0605 19.9395C24.7792 19.6581 24.3978 19.5 24 19.5C23.6022 19.5 23.2208 19.6581 22.9395 19.9395C22.6581 20.2208 22.5 20.6022 22.5 21V31.5C22.5 32.3284 21.8284 33 21 33H15C14.1716 33 13.5 32.3284 13.5 31.5V21C13.5 18.2152 14.6056 15.5438 16.5747 13.5747C18.5438 11.6056 21.2152 10.5 24 10.5C26.7848 10.5 29.4562 11.6056 31.4253 13.5747C33.3944 15.5438 34.5 18.2152 34.5 21V31.5ZM10.5 6C10.5 8.48528 8.48528 10.5 6 10.5C3.51472 10.5 1.5 8.48528 1.5 6C1.5 3.51472 3.51472 1.5 6 1.5C8.48528 1.5 10.5 3.51472 10.5 6Z" fill="#36C3DC"/>
</svg>
