<svg width="28" height="28" viewBox="0 0 28 28" fill="none" xmlns="http://www.w3.org/2000/svg">
<path d="M12.8327 22.1665V15.1665H5.83268C5.18835 15.1665 4.66602 14.6442 4.66602 13.9998C4.66602 13.3555 5.18835 12.8332 5.83268 12.8332H12.8327V5.83317C12.8327 5.18884 13.355 4.6665 13.9993 4.6665C14.6437 4.6665 15.166 5.18884 15.166 5.83317V12.8332H22.166C22.8103 12.8332 23.3327 13.3555 23.3327 13.9998C23.3327 14.6442 22.8103 15.1665 22.166 15.1665H15.166V22.1665C15.166 22.8108 14.6437 23.3332 13.9993 23.3332C13.355 23.3332 12.8327 22.8108 12.8327 22.1665Z" fill="#0A0A0A"/>
</svg>
