<svg width="36" height="36" viewBox="0 0 36 36" fill="none" xmlns="http://www.w3.org/2000/svg">
<path d="M7.14654 6.68107C14.3449 5.64016 21.6557 5.64016 28.8541 6.68107L30.3951 6.91984L30.5474 6.95353C31.3005 7.1601 31.9874 7.55858 32.5396 8.11076C33.0918 8.66297 33.4903 9.34984 33.6968 10.1029C33.7046 10.1313 33.7113 10.1606 33.7173 10.1894C34.8086 15.3393 34.8086 20.6605 33.7173 25.8105C33.7113 25.8392 33.7046 25.8685 33.6968 25.8969L32.2525 25.4999H32.2496L33.6968 25.8969C33.4903 26.65 33.0918 27.3369 32.5396 27.8891C31.9874 28.4413 31.3005 28.8397 30.5474 29.0463L30.1504 27.599V27.6005L30.5474 29.0463C30.4976 29.06 30.4461 29.0715 30.3951 29.08L28.8541 29.3188C21.1414 30.4343 13.2997 30.3549 5.60553 29.08L5.85162 27.5917L5.45318 29.0463C4.70012 28.8397 4.01317 28.4413 3.46099 27.8891C2.97765 27.4057 2.61245 26.819 2.39019 26.1752L2.30377 25.8969L2.28326 25.8105L3.75103 25.4999H3.74957L2.28326 25.8105C1.19204 20.6605 1.19204 15.3393 2.28326 10.1894C2.28935 10.1606 2.296 10.1313 2.30377 10.1029C2.51031 9.34984 2.90882 8.66297 3.46099 8.11076C4.01317 7.55859 4.70011 7.1601 5.45318 6.95353C5.50306 6.93986 5.5545 6.92829 5.60553 6.91984L7.14654 6.68107ZM5.60553 29.08C5.55452 29.0715 5.50305 29.06 5.45318 29.0463L5.85015 27.6005L5.60553 29.08ZM29.8062 9.86418C21.9874 8.57992 14.0117 8.57976 6.19293 9.86418C5.96353 9.93651 5.75413 10.0615 5.58355 10.2319C5.40549 10.4099 5.2748 10.6306 5.20416 10.872C4.21707 15.5721 4.21726 20.4262 5.20416 25.1264C5.27471 25.3683 5.40516 25.5896 5.58355 25.768C5.75369 25.9379 5.96275 26.0618 6.19146 26.1342C14.0108 27.4192 21.9868 27.4189 29.8062 26.1342C30.036 26.0619 30.2462 25.9386 30.417 25.768C30.5953 25.5897 30.7244 25.3682 30.795 25.1264C31.782 20.426 31.7822 15.5723 30.795 10.872C30.7243 10.6307 30.595 10.4098 30.417 10.2319C30.2461 10.0612 30.0361 9.93644 29.8062 9.86418ZM14.2613 12.1947C14.6726 11.9619 15.1657 11.9378 15.5928 12.1215L15.7715 12.2138L23.2715 16.7138L22.4996 17.9999L23.2715 19.2861L15.7715 23.7861C15.3082 24.0639 14.7314 24.0713 14.2613 23.8051C13.791 23.5388 13.501 23.0403 13.501 22.4999V13.4999C13.501 12.9595 13.791 12.461 14.2613 12.1947ZM16.501 19.85L19.5845 17.9999L16.501 16.1484V19.85ZM23.2715 16.7138C23.7234 16.9849 24.001 17.473 24.001 17.9999C24.001 18.5268 23.7234 19.015 23.2715 19.2861L22.501 17.9999L23.2715 16.7138Z" fill="#36C3DC"/>
</svg>
