<svg width="21" height="17" viewBox="0 0 21 17" fill="none" xmlns="http://www.w3.org/2000/svg">
<path d="M8.83119 0.000208855L5.66319 11.5202L4.60719 7.20021C5.98319 7.20021 7.10319 7.60021 7.96719 8.40021C8.83119 9.20021 9.26319 10.3042 9.26319 11.7122C9.26319 13.0882 8.81519 14.2082 7.91919 15.0722C7.05519 15.9042 5.96719 16.3202 4.65519 16.3202C3.31119 16.3202 2.19119 15.9042 1.29519 15.0722C0.431188 14.2082 -0.000812411 13.0882 -0.000812411 11.7122C-0.000812411 11.2962 0.0311876 10.8962 0.0951876 10.5122C0.159188 10.0962 0.287188 9.61621 0.479188 9.07221C0.671188 8.52821 0.943188 7.80821 1.29519 6.91221L4.07919 0.000208855H8.83119ZM20.1592 0.000208855L16.9912 11.5202L15.9352 7.20021C17.3112 7.20021 18.4312 7.60021 19.2952 8.40021C20.1592 9.20021 20.5912 10.3042 20.5912 11.7122C20.5912 13.0882 20.1432 14.2082 19.2472 15.0722C18.3832 15.9042 17.2952 16.3202 15.9832 16.3202C14.6392 16.3202 13.5192 15.9042 12.6232 15.0722C11.7592 14.2082 11.3272 13.0882 11.3272 11.7122C11.3272 11.2962 11.3592 10.8962 11.4232 10.5122C11.4872 10.0962 11.6152 9.61621 11.8072 9.07221C11.9992 8.52821 12.2712 7.80821 12.6232 6.91221L15.4072 0.000208855H20.1592Z" fill="#99CDE4"/>
</svg>
